<svg width="50" height="50" viewBox="0 0 50 50" xmlns="http://www.w3.org/2000/svg">
  <path d="M38.9731 26.4731C39.7867 25.6595 39.7867 24.3405 38.9731 23.5269L28.5564 13.1102C27.7428 12.2966 26.4237 12.2966 25.6101 13.1102C24.7965 13.9238 24.7965 15.2429 25.6101 16.0565L32.4703 22.9167L12.4999 22.9167C11.3493 22.9167 10.4166 23.8494 10.4166 25C10.4166 26.1506 11.3493 27.0833 12.4999 27.0833L32.4703 27.0833L25.6101 33.9435C24.7965 34.7571 24.7965 36.0762 25.6101 36.8898C26.4237 37.7034 27.7428 37.7034 28.5564 36.8898L38.9731 26.4731Z" fill="#AD281F" transform="rotate(180 25 25)"/>
</svg>
