<svg width="25" height="25" viewBox="0 0 25 25" fill="none" xmlns="http://www.w3.org/2000/svg">
<path fill-rule="evenodd" clip-rule="evenodd" d="M21.4996 6.66797H9.49963C8.83525 6.66797 8.35559 7.30387 8.53811 7.94269L10.5381 14.9427C10.6608 15.372 11.0532 15.668 11.4996 15.668H19.4996C19.9461 15.668 20.3385 15.372 20.4612 14.9427L22.4612 7.94269C22.6437 7.30387 22.164 6.66797 21.4996 6.66797ZM18.7453 13.668H12.2539L10.8254 8.66797H20.1739L18.7453 13.668Z" fill="white"/>
<path d="M4.63386 7.29243L1.94541 5.50013C1.48588 5.19377 1.3617 4.5729 1.66806 4.11337C1.97441 3.65385 2.59528 3.52967 3.05481 3.83602L6.05481 5.83602C6.25569 5.96995 6.40134 6.17203 6.46487 6.40496L9.2639 16.6681H21.5001C22.0524 16.6681 22.5001 17.1158 22.5001 17.6681C22.5001 18.2204 22.0524 18.6681 21.5001 18.6681H8.50011C8.04916 18.6681 7.654 18.3663 7.53534 17.9312L4.63386 7.29243Z" fill="white"/>
<path d="M12 22.668C12.8284 22.668 13.5 21.9964 13.5 21.168C13.5 20.3395 12.8284 19.668 12 19.668C11.1716 19.668 10.5 20.3395 10.5 21.168C10.5 21.9964 11.1716 22.668 12 22.668Z" fill="white"/>
<path d="M19 22.668C19.8284 22.668 20.5 21.9964 20.5 21.168C20.5 20.3395 19.8284 19.668 19 19.668C18.1716 19.668 17.5 20.3395 17.5 21.168C17.5 21.9964 18.1716 22.668 19 22.668Z" fill="white"/>
</svg>
