<svg width="21" height="19" viewBox="0 0 21 19" fill="none" xmlns="http://www.w3.org/2000/svg">
<path fill-rule="evenodd" clip-rule="evenodd" d="M20.0001 3H8.00012C7.33574 3 6.85608 3.6359 7.0386 4.27472L9.0386 11.2747C9.16125 11.704 9.55364 12 10.0001 12H18.0001C18.4466 12 18.839 11.704 18.9616 11.2747L20.9616 4.27472C21.1442 3.6359 20.6645 3 20.0001 3ZM17.2458 10H10.7544L9.32585 5H18.6744L17.2458 10Z" fill="black"/>
<path d="M3.13386 3.62446L0.445406 1.83216C-0.0141226 1.5258 -0.138296 0.904935 0.168056 0.445406C0.474408 -0.0141226 1.09528 -0.138296 1.55481 0.168056L4.55481 2.16806C4.75569 2.30198 4.90134 2.50406 4.96487 2.73699L7.7639 13.0001H20.0001C20.5524 13.0001 21.0001 13.4478 21.0001 14.0001C21.0001 14.5524 20.5524 15.0001 20.0001 15.0001H7.00011C6.54916 15.0001 6.154 14.6983 6.03534 14.2632L3.13386 3.62446Z" fill="black"/>
<path d="M10.5001 19C11.3285 19 12.0001 18.3284 12.0001 17.5C12.0001 16.6716 11.3285 16 10.5001 16C9.67169 16 9.00012 16.6716 9.00012 17.5C9.00012 18.3284 9.67169 19 10.5001 19Z" fill="black"/>
<path d="M17.5001 19C18.3285 19 19.0001 18.3284 19.0001 17.5C19.0001 16.6716 18.3285 16 17.5001 16C16.6717 16 16.0001 16.6716 16.0001 17.5C16.0001 18.3284 16.6717 19 17.5001 19Z" fill="black"/>
</svg>
