<svg width="200" height="200" viewBox="0 0 200 200" fill="none" xmlns="http://www.w3.org/2000/svg">
<path fill-rule="evenodd" clip-rule="evenodd" d="M99.9997 166.667C136.819 166.667 166.666 136.82 166.666 100.001C166.666 63.1817 136.819 33.334 99.9997 33.334C63.1807 33.334 33.333 63.1817 33.333 100.001C33.333 136.82 63.1807 166.667 99.9997 166.667Z" fill="#CAFAE0"/>
<path fill-rule="evenodd" clip-rule="evenodd" d="M118.493 78.1278C121.368 74.534 126.612 73.9513 130.206 76.8264C133.8 79.7015 134.383 84.9456 131.508 88.5394L98.1742 130.206C95.0715 134.084 89.2865 134.405 85.7744 130.893L69.1078 114.226C65.8534 110.972 65.8534 105.695 69.1078 102.441C72.3621 99.1867 77.6385 99.1867 80.8929 102.441L90.976 112.524L118.493 78.1278Z" fill="#353B32"/>
</svg>
