<svg width="15" height="15" viewBox="0 0 15 15" fill="none" xmlns="http://www.w3.org/2000/svg">
<path d="M12.2161 11.2217C12.3482 11.3538 12.4224 11.533 12.4224 11.7198C12.4224 11.9066 12.3482 12.0857 12.2161 12.2178C12.084 12.3499 11.9048 12.4241 11.718 12.4241C11.5312 12.4241 11.3521 12.3499 11.22 12.2178L7.49985 8.49653L3.77856 12.2167C3.64647 12.3487 3.46732 12.4229 3.28052 12.4229C3.09371 12.4229 2.91456 12.3487 2.78247 12.2167C2.65038 12.0846 2.57617 11.9054 2.57617 11.7186C2.57617 11.5318 2.65038 11.3526 2.78247 11.2206L6.50376 7.50044L2.78364 3.77915C2.65155 3.64706 2.57734 3.46791 2.57734 3.2811C2.57734 3.0943 2.65155 2.91515 2.78364 2.78306C2.91573 2.65097 3.09488 2.57676 3.28169 2.57676C3.46849 2.57676 3.64765 2.65097 3.77974 2.78306L7.49985 6.50434L11.2211 2.78247C11.3532 2.65038 11.5324 2.57617 11.7192 2.57617C11.906 2.57617 12.0851 2.65038 12.2172 2.78247C12.3493 2.91456 12.4235 3.09371 12.4235 3.28052C12.4235 3.46732 12.3493 3.64647 12.2172 3.77856L8.49595 7.50044L12.2161 11.2217Z" fill="#6C6C6C"/>
</svg>
