<svg width="50" height="51" viewBox="0 0 50 51" fill="none" xmlns="http://www.w3.org/2000/svg">
<path fill-rule="evenodd" clip-rule="evenodd" d="M24.9997 42.1673C34.2044 42.1673 41.6663 34.7054 41.6663 25.5007C41.6663 16.2959 34.2044 8.83398 24.9997 8.83398C15.7949 8.83398 8.33301 16.2959 8.33301 25.5007C8.33301 34.7054 15.7949 42.1673 24.9997 42.1673Z" fill="#18840F" stroke="#18840F"/>
<path fill-rule="evenodd" clip-rule="evenodd" d="M29.6235 20.032C30.3423 19.1335 31.6533 18.9878 32.5518 19.7066C33.4502 20.4254 33.5959 21.7364 32.8771 22.6349L24.5438 33.0515C23.7681 34.0211 22.3219 34.1012 21.4439 33.2232L17.2772 29.0566C16.4636 28.243 16.4636 26.9239 17.2772 26.1103C18.0908 25.2967 19.4099 25.2967 20.2235 26.1103L22.7442 28.6311L29.6235 20.032Z" fill="white"/>
</svg>
