<svg width="134" height="134" viewBox="0 0 134 134" fill="none" xmlns="http://www.w3.org/2000/svg">
<path fill-rule="evenodd" clip-rule="evenodd" d="M66.9997 133.667C103.819 133.667 133.666 103.82 133.666 67.0007C133.666 30.1817 103.819 0.333984 66.9997 0.333984C30.1807 0.333984 0.333008 30.1817 0.333008 67.0007C0.333008 103.82 30.1807 133.667 66.9997 133.667Z" fill="#CAFAE0"/>
<path fill-rule="evenodd" clip-rule="evenodd" d="M85.8251 37.0196C88.7002 32.7849 93.9443 32.0983 97.5382 35.4861C101.132 38.8739 101.715 45.0531 98.8396 49.2879L65.5063 98.3848C62.4036 102.955 56.6185 103.332 53.1065 99.194L36.4398 79.5553C33.1854 75.7206 33.1854 69.5033 36.4398 65.6685C39.6942 61.8338 44.9705 61.8338 48.2249 65.6685L58.308 77.5498L85.8251 37.0196Z" fill="#353B32"/>
</svg>
