<svg width="108" height="59" viewBox="0 0 108 59" fill="none" xmlns="http://www.w3.org/2000/svg">
<g clip-path="url(#clip0_751_3100)">
<path d="M22.9604 24.8602H19.9572C19.7796 23.9928 19.4687 23.2308 19.0247 22.5741C18.5887 21.9175 18.0559 21.3662 17.4262 20.9203C16.8045 20.4664 16.1143 20.1259 15.3554 19.8989C14.5965 19.6719 13.8053 19.5584 12.9818 19.5584C11.4802 19.5584 10.1199 19.9394 8.90079 20.7015C7.68977 21.4635 6.725 22.5863 6.00648 24.0698C5.29604 25.5533 4.9408 27.3733 4.9408 29.5297C4.9408 31.686 5.29604 33.506 6.00648 34.9895C6.725 36.4729 7.68977 37.5957 8.90079 38.3579C10.1199 39.1198 11.4802 39.501 12.9818 39.501C13.8053 39.501 14.5965 39.3873 15.3554 39.1602C16.1143 38.9332 16.8045 38.597 17.4262 38.1511C18.0559 37.6971 18.5887 37.1416 19.0247 36.4852C19.4687 35.8206 19.7796 35.0583 19.9572 34.1991H22.9604C22.7344 35.472 22.3227 36.6109 21.7252 37.6159C21.1278 38.6213 20.3851 39.4767 19.497 40.1817C18.6089 40.8789 17.6119 41.41 16.5058 41.7747C15.4079 42.1397 14.2332 42.3219 12.9818 42.3219C10.8666 42.3219 8.98554 41.8031 7.3386 40.7655C5.69162 39.728 4.39586 38.2525 3.45128 36.3393C2.50671 34.4262 2.03442 32.1562 2.03442 29.5297C2.03442 26.9031 2.50671 24.6332 3.45128 22.72C4.39586 20.8069 5.69162 19.3315 7.3386 18.2938C8.98554 17.2561 10.8666 16.7373 12.9818 16.7373C14.2332 16.7373 15.4079 16.9197 16.5058 17.2845C17.6119 17.6493 18.6089 18.1844 19.497 18.8896C20.3851 19.5868 21.1278 20.438 21.7252 21.4432C22.3227 22.4403 22.7344 23.5794 22.9604 24.8602ZM106.117 24.8602H103.113C102.936 23.9928 102.625 23.2308 102.181 22.5741C101.745 21.9175 101.212 21.3662 100.582 20.9203C99.9608 20.4664 99.2703 20.1259 98.5115 19.8989C97.7527 19.6719 96.9616 19.5584 96.138 19.5584C94.6362 19.5584 93.2759 19.9394 92.0571 20.7015C90.8458 21.4635 89.8811 22.5863 89.1625 24.0698C88.4522 25.5533 88.0969 27.3733 88.0969 29.5297C88.0969 31.686 88.4522 33.506 89.1625 34.9895C89.8811 36.4729 90.8458 37.5957 92.0571 38.3579C93.2759 39.1198 94.6362 39.501 96.138 39.501C96.9616 39.501 97.7527 39.3873 98.5115 39.1602C99.2703 38.9332 99.9608 38.597 100.582 38.1511C101.212 37.6971 101.745 37.1416 102.181 36.4852C102.625 35.8206 102.936 35.0583 103.113 34.1991H106.117C105.89 35.472 105.479 36.6109 104.881 37.6159C104.284 38.6213 103.541 39.4767 102.653 40.1817C101.765 40.8789 100.768 41.41 99.6621 41.7747C98.564 42.1397 97.3892 42.3219 96.138 42.3219C94.0227 42.3219 92.1416 41.8031 90.4949 40.7655C88.8478 39.728 87.5519 38.2525 86.6073 36.3393C85.663 34.4262 85.1907 32.1562 85.1907 29.5297C85.1907 26.9031 85.663 24.6332 86.6073 22.72C87.5519 20.8069 88.8478 19.3315 90.4949 18.2938C92.1416 17.2561 94.0227 16.7373 96.138 16.7373C97.3892 16.7373 98.564 16.9197 99.6621 17.2845C100.768 17.6493 101.765 18.1844 102.653 18.8896C103.541 19.5868 104.284 20.438 104.881 21.4432C105.479 22.4403 105.89 23.5794 106.117 24.8602Z" fill="#444243"/>
<path d="M47.7706 24.8602H44.7676C44.5899 23.9928 44.2789 23.2308 43.8349 22.5741C43.3991 21.9175 42.8661 21.3662 42.2366 20.9203C41.6149 20.4664 40.9247 20.1259 40.1656 19.8989C39.4068 19.6719 38.6157 19.5584 37.7921 19.5584C36.2906 19.5584 34.9303 19.9394 33.7111 20.7015C32.5001 21.4635 31.5353 22.5863 30.8168 24.0698C30.1063 25.5533 29.7511 27.3733 29.7511 29.5297C29.7511 31.686 30.1063 33.506 30.8168 34.9895C31.5353 36.4729 32.5001 37.5957 33.7111 38.3579C34.9303 39.1198 36.2906 39.501 37.7921 39.501C38.6157 39.501 39.4068 39.3873 40.1656 39.1602C40.9247 38.9332 41.6149 38.597 42.2366 38.1511C42.8661 37.6971 43.3991 37.1416 43.8349 36.4852C44.2789 35.8206 44.5899 35.0583 44.7676 34.1991H47.7706C47.5448 35.472 47.1329 36.6109 46.5354 37.6159C45.938 38.6213 45.1952 39.4767 44.3072 40.1817C43.4192 40.8789 42.4221 41.41 41.3162 41.7747C40.2181 42.1397 39.0436 42.3219 37.7921 42.3219C35.6768 42.3219 33.7958 41.8031 32.1489 40.7655C30.5019 39.728 29.2062 38.2525 28.2616 36.3393C27.317 34.4262 26.8447 32.1562 26.8447 29.5297C26.8447 26.9031 27.317 24.6332 28.2616 22.72C29.2062 20.8069 30.5019 19.3315 32.1489 18.2938C33.7958 17.2561 35.6768 16.7373 37.7921 16.7373C39.0436 16.7373 40.2181 16.9197 41.3162 17.2845C42.4221 17.6493 43.4192 18.1844 44.3072 18.8896C45.1952 19.5868 45.938 20.438 46.5354 21.4432C47.1329 22.4403 47.5448 23.5794 47.7706 24.8602ZM55.6269 17.0778V41.9815H52.624V17.0778H55.6269ZM69.3024 41.9815H61.6486V17.0778H69.6414C72.0472 17.0778 74.106 17.5764 75.8175 18.5735C77.5291 19.5625 78.841 20.9852 79.7532 22.8416C80.6654 24.6899 81.1217 26.9031 81.1217 29.481C81.1217 32.0751 80.6613 34.3084 79.7409 36.1811C78.8209 38.0457 77.4807 39.4804 75.7207 40.4858C73.9607 41.4829 71.8211 41.9815 69.3024 41.9815ZM64.652 39.3065H69.1084C71.1592 39.3065 72.8585 38.9089 74.2069 38.1145C75.5549 37.3201 76.5603 36.1894 77.2222 34.7221C77.8841 33.2547 78.2152 31.5077 78.2152 29.481C78.2152 27.4705 77.8882 25.7398 77.2345 24.2887C76.5804 22.8295 75.6034 21.7108 74.3037 20.9325C73.0038 20.1462 71.3853 19.753 69.4477 19.753H64.652V39.3065Z" fill="#BC0E0F"/>
<path d="M83.0376 0.342529H24.9624V58.6577H83.0376V0.342529Z" stroke="#444243" stroke-width="1.5"/>
</g>
<defs>
<clipPath id="clip0_751_3100">
<rect width="108" height="59" fill="white"/>
</clipPath>
</defs>
</svg>
