<svg width="43" height="43" viewBox="0 0 43 43" fill="none" xmlns="http://www.w3.org/2000/svg">
<g clip-path="url(#clip0_809_79219)">
<rect x="0.5" y="0.489258" width="42" height="42" rx="4" fill="#782420"/>
<path d="M23.1668 11.4889C23.1668 10.5685 22.4206 9.82227 21.5002 9.82227C20.5797 9.82227 19.8335 10.5685 19.8335 11.4889V19.8223H11.5002C10.5797 19.8223 9.8335 20.5685 9.8335 21.4889C9.8335 22.4094 10.5797 23.1556 11.5002 23.1556H19.8335V31.4889C19.8335 32.4094 20.5797 33.1556 21.5002 33.1556C22.4206 33.1556 23.1668 32.4094 23.1668 31.4889V23.1556H31.5002C32.4206 23.1556 33.1668 22.4094 33.1668 21.4889C33.1668 20.5685 32.4206 19.8223 31.5002 19.8223H23.1668V11.4889Z" fill="white" stroke="white"/>
</g>
<defs>
<clipPath id="clip0_809_79219">
<rect x="0.5" y="0.489258" width="42" height="42" rx="4" fill="white"/>
</clipPath>
</defs>
</svg>
