<svg width="200" height="200" viewBox="0 0 200 200" fill="none" xmlns="http://www.w3.org/2000/svg">
<circle cx="100.001" cy="100.001" r="66.6667" fill="#FCD19C"/>
<path d="M89.584 83.3337C89.584 77.5012 94.8141 72.916 100.001 72.916C105.187 72.916 110.417 77.5012 110.417 83.3337C110.417 86.3429 109.702 87.919 108.957 88.9742C108.052 90.2565 106.784 91.2669 104.584 92.917L104.364 93.0818C102.406 94.5483 99.6373 96.6217 97.4988 99.6513C95.1186 103.023 93.7506 107.176 93.7506 112.5C93.7506 115.952 96.5489 118.75 100.001 118.75C103.452 118.75 106.251 115.952 106.251 112.5C106.251 109.491 106.966 107.915 107.711 106.86C108.616 105.578 109.884 104.567 112.084 102.917L112.304 102.752C114.262 101.286 117.031 99.2123 119.169 96.1828C121.549 92.8109 122.917 88.6579 122.917 83.3337C122.917 70.003 111.481 60.416 100.001 60.416C88.5205 60.416 77.084 70.003 77.084 83.3337C77.084 86.7855 79.8822 89.5837 83.334 89.5837C86.7858 89.5837 89.584 86.7855 89.584 83.3337Z" fill="#333435"/>
<path d="M100.001 141.667C104.603 141.667 108.334 137.936 108.334 133.334C108.334 128.731 104.603 125 100.001 125C95.3983 125 91.6673 128.731 91.6673 133.334C91.6673 137.936 95.3983 141.667 100.001 141.667Z" fill="#333435"/>
</svg>
