<svg width="27" height="26" viewBox="0 0 27 26" fill="none" xmlns="http://www.w3.org/2000/svg">
<path d="M15.2913 2.64469C15.2913 1.65518 14.4892 0.853027 13.4997 0.853027C12.5102 0.853027 11.708 1.65518 11.708 2.64469V11.603H2.74967C1.76016 11.603 0.958008 12.4052 0.958008 13.3947C0.958008 14.3842 1.76016 15.1864 2.74967 15.1864H11.708V24.1447C11.708 25.1342 12.5102 25.9364 13.4997 25.9364C14.4892 25.9364 15.2913 25.1342 15.2913 24.1447V15.1864H24.2497C25.2392 15.1864 26.0413 14.3842 26.0413 13.3947C26.0413 12.4052 25.2392 11.603 24.2497 11.603H15.2913V2.64469Z" fill="#B4B4B4"/>
</svg>
