<svg width="32" height="32" viewBox="0 0 32 32" fill="none" xmlns="http://www.w3.org/2000/svg">
<g clip-path="url(#clip0_1_12)">
<path d="M16 32C24.8366 32 32 24.8366 32 16C32 7.16344 24.8366 0 16 0C7.16344 0 0 7.16344 0 16C0 24.8366 7.16344 32 16 32Z" fill="#AD281F"/>
<path d="M21.5867 9.96444C21.9678 9.52972 22.641 9.47633 23.0901 9.84517C23.5048 10.1856 23.5837 10.7669 23.2936 11.1962L23.2133 11.3001L13.2578 22.655C12.8848 23.0805 12.2376 23.1372 11.7934 22.8049L11.6947 22.7213L7.7836 18.9813C7.36457 18.5806 7.36054 17.927 7.77461 17.5215C8.15683 17.1471 8.76168 17.115 9.18207 17.4275L9.28308 17.5128L12.3755 20.4697L21.5867 9.96444Z" fill="#EBEBEB"/>
</g>
<defs>
<clipPath id="clip0_1_12">
<rect width="32" height="32" fill="white"/>
</clipPath>
</defs>
</svg>
