<svg width="33" height="33" viewBox="0 0 33 33" fill="none" xmlns="http://www.w3.org/2000/svg">
<path fill-rule="evenodd" clip-rule="evenodd" d="M15.8525 3.52255C15.4376 3.55684 15.1243 3.5985 14.7796 3.66529C14.5734 3.70522 14.1602 3.80286 14.0765 3.83143C14.0545 3.83894 14.0041 3.85417 13.9645 3.86526C13.728 3.93153 13.2442 4.10444 13.0298 4.19935C12.9938 4.21524 12.9393 4.23826 12.9085 4.25052C12.7656 4.30734 12.1737 4.61196 11.9723 4.7323C11.3108 5.12758 10.7923 5.53273 10.2363 6.08866C9.68039 6.64462 9.27524 7.16314 8.87996 7.82462C8.75962 8.02599 8.455 8.61794 8.39819 8.76079C8.38593 8.79159 8.36291 8.84617 8.34702 8.88209C8.25211 9.09654 8.07919 9.58031 8.01292 9.81679C8.00183 9.85639 7.9866 9.90679 7.9791 9.92879C7.91803 10.1078 7.79183 10.7052 7.74102 11.0559C7.67571 11.5065 7.66846 11.6353 7.66846 12.3448C7.66846 13.0543 7.67571 13.1831 7.74102 13.6337C7.79183 13.9844 7.91803 14.5817 7.9791 14.7608C7.9866 14.7828 8.00183 14.8332 8.01292 14.8728C8.07919 15.1093 8.25211 15.593 8.34702 15.8075C8.36291 15.8434 8.38593 15.898 8.39819 15.9288C8.41044 15.9596 8.49371 16.1324 8.58323 16.3128C8.82361 16.7972 9.08126 17.2162 9.41444 17.6648C9.80716 18.1935 10.1846 18.853 10.4858 19.5368C10.4974 19.5632 10.5291 19.6424 10.5562 19.7128C10.5833 19.7832 10.6116 19.8552 10.6192 19.8728C10.685 20.0258 10.7994 20.3721 10.8781 20.6568C10.8854 20.6832 10.9025 20.7444 10.9161 20.7928C11.0285 21.1929 11.1508 21.9192 11.1882 22.4088C11.2069 22.6541 11.3005 22.988 11.4099 23.2002C11.5375 23.4476 11.7738 23.7156 12.0147 23.8859C12.1493 23.9812 12.4169 24.109 12.5725 24.1524C12.8697 24.2354 12.7349 24.2326 16.4925 24.2326C20.25 24.2326 20.1152 24.2354 20.4125 24.1524C20.568 24.109 20.8356 23.9812 20.9703 23.8859C21.2111 23.7156 21.4474 23.4476 21.575 23.2002C21.6845 22.988 21.778 22.6541 21.7967 22.4088C21.8342 21.9192 21.9564 21.1929 22.0688 20.7928C22.0824 20.7444 22.0995 20.6832 22.1068 20.6568C22.1856 20.3721 22.2999 20.0258 22.3657 19.8728C22.3733 19.8552 22.4017 19.7832 22.4287 19.7128C22.4558 19.6424 22.4875 19.5632 22.4991 19.5368C22.7975 18.8595 23.1622 18.2202 23.5406 17.7113C23.719 17.4713 23.9427 17.1357 24.1049 16.8648C24.2251 16.6638 24.5297 16.0723 24.5867 15.9288C24.599 15.898 24.622 15.8434 24.6379 15.8075C24.7328 15.593 24.9057 15.1093 24.972 14.8728C24.9831 14.8332 24.9983 14.7828 25.0058 14.7608C25.0669 14.5817 25.1931 13.9844 25.2439 13.6337C25.3092 13.1831 25.3165 13.0543 25.3165 12.3448C25.3165 11.6353 25.3092 11.5065 25.2439 11.0559C25.1931 10.7052 25.0669 10.1078 25.0058 9.92879C24.9983 9.90679 24.9831 9.85639 24.972 9.81679C24.9057 9.58031 24.7328 9.09654 24.6379 8.88209C24.622 8.84617 24.599 8.79159 24.5867 8.76079C24.5299 8.61794 24.2253 8.02599 24.105 7.82462C23.7097 7.16314 23.3045 6.64462 22.7486 6.08866C22.1926 5.53273 21.6741 5.12758 21.0126 4.7323C20.8113 4.61196 20.2193 4.30734 20.0765 4.25052C20.0457 4.23826 19.9911 4.21524 19.9552 4.19935C19.7407 4.10444 19.2569 3.93153 19.0205 3.86526C18.9809 3.85417 18.9305 3.83894 18.9085 3.83143C18.7448 3.77561 18.1517 3.64814 17.8326 3.60022C17.3909 3.53386 17.2555 3.52524 16.5885 3.52092C16.2233 3.51855 15.8921 3.51929 15.8525 3.52255ZM16.1405 5.20228C15.5106 5.25676 15.1181 5.32071 14.6685 5.44215C14.4418 5.50337 14.1038 5.61142 14.018 5.65006C13.9903 5.66257 13.9596 5.67279 13.9498 5.67279C13.94 5.67279 13.9195 5.6794 13.9042 5.68748C13.8745 5.70324 13.8136 5.73002 13.5916 5.82505C13.2387 5.97609 12.6824 6.29634 12.3387 6.54631C11.6666 7.03503 11.1827 7.51898 10.694 8.191C10.444 8.53471 10.1238 9.09103 9.97271 9.44391C9.87769 9.66591 9.85091 9.72679 9.83515 9.75657C9.82707 9.77185 9.82046 9.79236 9.82046 9.80215C9.82046 9.81194 9.81023 9.84265 9.79772 9.87038C9.72164 10.0391 9.55807 10.6062 9.49241 10.9288C9.39046 11.4297 9.34953 11.8353 9.34953 12.3448C9.34953 12.8543 9.39046 13.2599 9.49241 13.7608C9.55807 14.0834 9.72164 14.6505 9.79772 14.8192C9.81023 14.8469 9.82046 14.8776 9.82046 14.8874C9.82046 14.8972 9.82707 14.9177 9.83515 14.933C9.85091 14.9628 9.87769 15.0237 9.97271 15.2457C10.09 15.5196 10.3642 16.0165 10.5575 16.3055C10.599 16.3674 10.697 16.5042 10.7753 16.6095C10.948 16.8417 11.2936 17.3679 11.4525 17.6408C11.5781 17.8564 11.8401 18.3644 11.9393 18.5848C12.0012 18.7222 12.0856 18.9222 12.1266 19.0288C12.1342 19.0486 12.1467 19.081 12.1543 19.1008C12.1808 19.1696 12.2002 19.2172 12.2262 19.2773C12.2407 19.3106 12.2525 19.3466 12.2526 19.3573C12.2526 19.368 12.2625 19.3957 12.2746 19.4188C12.2963 19.4605 12.3874 19.7326 12.4667 19.9928C12.6397 20.5603 12.7886 21.3318 12.8673 22.0684C12.8984 22.3595 12.9353 22.4294 13.1085 22.5253L13.1725 22.5608L14.4725 22.5657L15.7725 22.5705V19.1137C15.7725 16.5451 15.7678 15.6568 15.7543 15.6568C15.6986 15.6568 15.3073 15.7476 15.1565 15.7955C14.8513 15.8925 14.6175 16.0048 14.3485 16.1837C14.1798 16.2958 14.0666 16.3278 13.8358 16.3284C13.568 16.3291 13.4043 16.2647 13.2276 16.089C13.0779 15.9402 13.0216 15.805 13.0208 15.5923C13.0204 15.4782 13.0343 15.421 13.1298 15.1448C13.2061 14.924 13.2525 14.707 13.2844 14.4211C13.3144 14.1531 13.3143 13.9922 13.2843 13.7233C13.2377 13.3062 13.1522 12.9923 12.9977 12.6706C12.8973 12.4617 12.8187 12.3418 12.6656 12.1644C12.6043 12.0933 12.5349 11.9986 12.5113 11.954C12.4727 11.8809 12.4685 11.8561 12.4685 11.7048C12.4685 11.5538 12.4729 11.5277 12.5125 11.447C12.5677 11.3347 12.7033 11.2047 12.8244 11.1479C12.9096 11.108 12.932 11.1048 13.1245 11.1048C13.3198 11.1048 13.3385 11.1076 13.432 11.1508C13.5077 11.1857 13.5655 11.2318 13.6727 11.3428C14.1475 11.8341 14.4563 12.5038 14.5899 13.3318C14.628 13.5681 14.6486 14.2649 14.6249 14.5178C14.6126 14.6489 14.6139 14.666 14.6357 14.6596C14.6493 14.6557 14.7235 14.6338 14.8005 14.6111C14.9495 14.5672 15.4006 14.4745 15.6321 14.4404L15.7717 14.4198L15.7761 12.0183L15.7805 9.61679L15.8178 9.5134C15.8697 9.36964 15.9174 9.29353 16.0219 9.1882C16.1794 9.02951 16.3837 8.96202 16.5988 8.99767C16.7439 9.02172 16.856 9.08038 16.963 9.1882C17.0675 9.29353 17.1153 9.36964 17.1671 9.5134L17.2045 9.61679L17.2089 12.0178L17.2133 14.4187L17.3609 14.4396C17.5879 14.4719 18.0445 14.5651 18.2004 14.6111C18.2774 14.6338 18.3516 14.6557 18.3652 14.6596C18.387 14.666 18.3883 14.6489 18.376 14.5178C18.3523 14.2649 18.3729 13.5681 18.411 13.3318C18.5446 12.5038 18.8534 11.8341 19.3282 11.3428C19.4354 11.2318 19.4932 11.1857 19.5689 11.1508C19.6624 11.1076 19.6811 11.1048 19.8765 11.1048C20.0689 11.1048 20.0913 11.108 20.1765 11.1479C20.2977 11.2047 20.4332 11.3347 20.4884 11.447C20.528 11.5277 20.5325 11.5538 20.5325 11.7048C20.5325 11.8561 20.5282 11.8809 20.4896 11.954C20.466 11.9986 20.3966 12.0933 20.3353 12.1644C20.1822 12.3418 20.1036 12.4617 20.0032 12.6706C19.8487 12.9923 19.7632 13.3062 19.7166 13.7233C19.6866 13.9922 19.6866 14.1531 19.7165 14.4211C19.7484 14.707 19.7948 14.924 19.8711 15.1448C19.9666 15.421 19.9805 15.4782 19.9801 15.5923C19.9793 15.805 19.923 15.9402 19.7733 16.089C19.5966 16.2647 19.4329 16.3291 19.1651 16.3284C18.9343 16.3278 18.8211 16.2958 18.6525 16.1837C18.3834 16.0048 18.1496 15.8925 17.8445 15.7955C17.6833 15.7443 17.3011 15.6568 17.2386 15.6568C17.2145 15.6568 17.2125 15.9245 17.2125 19.1137V22.5705L18.5125 22.5657L19.8125 22.5608L19.8765 22.5253C19.9675 22.4749 20.003 22.4422 20.051 22.3644C20.0868 22.3065 20.097 22.2614 20.1176 22.0684C20.1963 21.3318 20.3452 20.5603 20.5182 19.9928C20.5975 19.7326 20.6886 19.4605 20.7104 19.4188C20.7224 19.3957 20.7323 19.368 20.7324 19.3573C20.7324 19.3466 20.7443 19.3106 20.7587 19.2773C20.7731 19.244 20.7911 19.2006 20.7987 19.1808C20.8318 19.0942 20.8412 19.0703 20.8583 19.0288C20.8683 19.0046 20.8829 18.9686 20.8907 18.9488C21.0366 18.581 21.3123 18.019 21.5322 17.6408C21.6857 17.3767 21.9889 16.9181 22.2476 16.5585C22.5535 16.1332 22.8507 15.623 23.0122 15.2457C23.1072 15.0237 23.134 14.9628 23.1498 14.933C23.1579 14.9177 23.1645 14.8972 23.1645 14.8874C23.1645 14.8776 23.1747 14.8469 23.1872 14.8192C23.2633 14.6505 23.4268 14.0834 23.4925 13.7608C23.5945 13.2599 23.6354 12.8543 23.6354 12.3448C23.6354 11.8353 23.5945 11.4297 23.4925 10.9288C23.4268 10.6062 23.2633 10.0391 23.1872 9.87038C23.1747 9.84265 23.1645 9.81194 23.1645 9.80215C23.1645 9.79236 23.1579 9.77185 23.1498 9.75657C23.134 9.72679 23.1072 9.66591 23.0122 9.44391C22.8612 9.09103 22.5409 8.53471 22.2909 8.191C21.8022 7.51898 21.3183 7.03503 20.6463 6.54631C20.3025 6.29634 19.7462 5.97609 19.3933 5.82505C19.1713 5.73002 19.1105 5.70324 19.0807 5.68748C19.0654 5.6794 19.0449 5.67279 19.0351 5.67279C19.0253 5.67279 18.9946 5.66257 18.9669 5.65006C18.8812 5.61142 18.5431 5.50337 18.3165 5.44215C17.9548 5.34449 17.6262 5.28399 17.1727 5.23158C16.9736 5.20855 16.2916 5.18921 16.1405 5.20228ZM12.3325 24.715C11.9272 24.7816 11.6605 25.1078 11.6605 25.5368C11.6605 25.9237 11.8889 26.2443 12.232 26.3389C12.3366 26.3677 12.4869 26.3688 16.4925 26.3688C20.498 26.3688 20.6483 26.3677 20.7529 26.3389C21.096 26.2443 21.3245 25.9237 21.3245 25.5368C21.3245 25.0998 21.0575 24.7803 20.6365 24.7135C20.504 24.6925 12.4606 24.6939 12.3325 24.715ZM13.8845 26.8499C13.5741 26.9171 13.3237 27.1683 13.2597 27.4765C13.232 27.6099 13.248 27.8505 13.2922 27.9662C13.4016 28.253 13.6415 28.4447 13.9457 28.4887C14.0106 28.4981 15.009 28.5042 16.4925 28.5042C17.9759 28.5042 18.9743 28.4981 19.0392 28.4887C19.3434 28.4447 19.5833 28.253 19.6928 27.9662C19.737 27.8505 19.7529 27.6099 19.7252 27.4765C19.6604 27.1645 19.4098 26.9159 19.0925 26.849C18.9289 26.8145 14.044 26.8153 13.8845 26.8499Z" fill="#0C2B35"/>
</svg>
