<svg width="24" height="24" viewBox="0 0 24 24" fill="none" xmlns="http://www.w3.org/2000/svg">
<path d="M5 16C5.55229 16 6 16.4477 6 17V18H18V17C18 16.4477 18.4477 16 19 16C19.5523 16 20 16.4477 20 17V19C20 19.5523 19.5523 20 19 20H5C4.44772 20 4 19.5523 4 19L4 17C4 16.4477 4.44772 16 5 16Z" fill="black"/>
<path d="M12.7071 3.29289L17.7071 8.29289C18.0976 8.68342 18.0976 9.31658 17.7071 9.70711C17.3166 10.0976 16.6834 10.0976 16.2929 9.70711L13 6.41421V15C13 15.5523 12.5523 16 12 16C11.4477 16 11 15.5523 11 15V6.41421L7.70711 9.70711C7.31658 10.0976 6.68342 10.0976 6.29289 9.70711C5.90237 9.31658 5.90237 8.68342 6.29289 8.29289L11.2929 3.29289C11.6834 2.90237 12.3166 2.90237 12.7071 3.29289Z" fill="black"/>
</svg>
