<svg width="17" height="17" viewBox="0 0 17 17" fill="none" xmlns="http://www.w3.org/2000/svg">
<path d="M1.50049 13C2.05277 13 2.50049 13.4477 2.50049 14V15H14.5005V14C14.5005 13.4477 14.9482 13 15.5005 13C16.0528 13 16.5005 13.4477 16.5005 14V16C16.5005 16.5523 16.0528 17 15.5005 17H1.50049C0.948203 17 0.500489 16.5523 0.500488 16L0.500488 14C0.500488 13.4477 0.948204 13 1.50049 13Z" fill="black"/>
<path d="M9.2076 0.292894L14.2076 5.29289C14.5981 5.68342 14.5981 6.31658 14.2076 6.70711C13.8171 7.09763 13.1839 7.09763 12.7934 6.70711L9.50049 3.41421V12C9.50049 12.5523 9.05277 13 8.50049 13C7.9482 13 7.50049 12.5523 7.50049 12V3.41421L4.2076 6.70711C3.81707 7.09763 3.18391 7.09763 2.79338 6.70711C2.40286 6.31658 2.40286 5.68342 2.79338 5.29289L7.79338 0.292894C8.18391 -0.0976314 8.81707 -0.0976315 9.2076 0.292894Z" fill="black"/>
</svg>
