<svg width="200" height="200" viewBox="0 0 200 200" fill="none" xmlns="http://www.w3.org/2000/svg">
<path fill-rule="evenodd" clip-rule="evenodd" d="M100 166.667C136.819 166.667 166.667 136.82 166.667 100.001C166.667 63.1817 136.819 33.334 100 33.334C63.1812 33.334 33.3335 63.1817 33.3335 100.001C33.3335 136.82 63.1812 166.667 100 166.667Z" fill="#FCD19C"/>
<path d="M127.204 67.5765C126.125 67.5744 125.05 67.7048 124.005 67.9644V67.5765C124.008 64.7667 123.028 62.0392 121.225 59.8398C119.422 57.6405 116.904 56.0996 114.081 55.469C111.258 54.8384 108.298 55.1555 105.685 56.3684C103.073 57.5813 100.961 59.6183 99.6968 62.1462C97.7603 61.4436 95.677 61.2067 93.6254 61.4557C91.5738 61.7047 89.615 62.4323 87.9166 63.5761C86.2183 64.7199 84.8309 66.2458 83.8734 68.0233C82.9158 69.8009 82.4165 71.777 82.4183 73.7826V93.4985C80.3345 91.1926 77.4446 89.7165 74.3054 89.3548C71.1663 88.9931 68.0003 89.7713 65.4175 91.5394C62.8348 93.3075 61.0182 95.9405 60.3179 98.9307C59.6177 101.921 60.0832 105.057 61.6249 107.734C74.3489 133.749 82.1584 145.152 103.212 145.152C112.965 145.142 122.316 141.379 129.213 134.689C136.11 127.999 139.989 118.929 140 109.467V79.9886C140 76.6967 138.652 73.5396 136.252 71.2119C133.852 68.8842 130.598 67.5765 127.204 67.5765ZM130.403 109.467C130.395 116.46 127.527 123.164 122.43 128.109C117.332 133.054 110.421 135.835 103.212 135.843C88.8843 135.843 83.334 130.413 70.2302 103.595C70.1742 103.482 70.1142 103.37 70.0503 103.261C69.6524 102.551 69.5563 101.717 69.7825 100.939C70.0088 100.16 70.5394 99.4982 71.2615 99.0936C71.9835 98.6891 72.8399 98.574 73.6481 98.7729C74.4563 98.9717 75.1526 99.4689 75.5885 100.158L75.6725 100.294L83.1421 111.93C83.6931 112.79 84.5178 113.452 85.4912 113.815C86.4647 114.179 87.534 114.226 88.537 113.947C89.54 113.669 90.4221 113.081 91.0498 112.273C91.6774 111.464 92.0164 110.479 92.0153 109.467V73.7826C92.0153 72.9596 92.3523 72.1703 92.9522 71.5884C93.5522 71.0064 94.3658 70.6795 95.2143 70.6795C96.0627 70.6795 96.8764 71.0064 97.4763 71.5884C98.0762 72.1703 98.4132 72.9596 98.4132 73.7826V97.0553C98.4132 98.2898 98.9188 99.4737 99.8187 100.347C100.719 101.219 101.939 101.71 103.212 101.71C104.484 101.71 105.705 101.219 106.605 100.347C107.505 99.4737 108.01 98.2898 108.01 97.0553V67.5765C108.01 66.7535 108.347 65.9642 108.947 65.3823C109.547 64.8004 110.361 64.4735 111.209 64.4735C112.058 64.4735 112.871 64.8004 113.471 65.3823C114.071 65.9642 114.408 66.7535 114.408 67.5765V97.0553C114.408 98.2898 114.914 99.4737 115.814 100.347C116.713 101.219 117.934 101.71 119.207 101.71C120.479 101.71 121.7 101.219 122.6 100.347C123.5 99.4737 124.005 98.2898 124.005 97.0553V79.9886C124.005 79.1657 124.342 78.3764 124.942 77.7944C125.542 77.2125 126.356 76.8856 127.204 76.8856C128.052 76.8856 128.866 77.2125 129.466 77.7944C130.066 78.3764 130.403 79.1657 130.403 79.9886V109.467Z" fill="#6C6C6C"/>
</svg>
