<svg width="1000" height="1000" viewBox="0 0 1000 1000" fill="none" xmlns="http://www.w3.org/2000/svg">
<rect width="1000" height="1000" rx="50" fill="white"/>
<path d="M274.389 468.149H252.559C251.268 462.195 249.009 456.964 245.782 452.457C242.613 447.949 238.74 444.165 234.163 441.105C229.644 437.989 224.627 435.651 219.111 434.093C213.595 432.535 207.845 431.756 201.859 431.756C190.944 431.756 181.057 434.371 172.196 439.602C163.394 444.833 156.381 452.54 151.159 462.724C145.995 472.907 143.413 485.4 143.413 500.203C143.413 515.005 145.995 527.498 151.159 537.681C156.381 547.864 163.394 555.571 172.196 560.804C181.057 566.033 190.944 568.65 201.859 568.65C207.845 568.65 213.595 567.869 219.111 566.311C224.627 564.752 229.644 562.444 234.163 559.384C238.74 556.267 242.613 552.454 245.782 547.948C249.009 543.386 251.268 538.154 252.559 532.255H274.389C272.746 540.993 269.753 548.811 265.411 555.71C261.068 562.611 255.67 568.483 249.215 573.323C242.76 578.108 235.513 581.754 227.473 584.257C219.493 586.763 210.955 588.013 201.859 588.013C186.485 588.013 172.812 584.452 160.841 577.33C148.87 570.208 139.452 560.08 132.586 546.947C125.72 533.814 122.288 518.232 122.288 500.203C122.288 482.173 125.72 466.591 132.586 453.459C139.452 440.326 148.87 430.198 160.841 423.075C172.812 415.952 186.485 412.391 201.859 412.391C210.955 412.391 219.493 413.643 227.473 416.147C235.513 418.651 242.76 422.324 249.215 427.165C255.67 431.951 261.068 437.794 265.411 444.694C269.753 451.539 272.746 459.357 274.389 468.149ZM878.81 468.149H856.98C855.691 462.195 853.431 456.964 850.204 452.457C847.036 447.949 843.162 444.165 838.586 441.105C834.067 437.989 829.048 435.651 823.533 434.093C818.018 432.535 812.267 431.756 806.281 431.756C795.365 431.756 785.478 434.371 776.619 439.602C767.815 444.833 760.802 452.54 755.58 462.724C750.417 472.907 747.834 485.4 747.834 500.203C747.834 515.005 750.417 527.498 755.58 537.681C760.802 547.864 767.815 555.571 776.619 560.804C785.478 566.033 795.365 568.65 806.281 568.65C812.267 568.65 818.018 567.869 823.533 566.311C829.048 564.752 834.067 562.444 838.586 559.384C843.162 556.267 847.036 552.454 850.204 547.948C853.431 543.386 855.691 538.154 856.98 532.255H878.81C877.167 540.993 874.175 548.811 869.832 555.71C865.49 562.611 860.091 568.483 853.637 573.323C847.182 578.108 839.934 581.754 831.896 584.257C823.915 586.763 815.376 588.013 806.281 588.013C790.906 588.013 777.234 584.452 765.264 577.33C753.292 570.208 743.873 560.08 737.007 546.947C730.143 533.814 726.71 518.232 726.71 500.203C726.71 482.173 730.143 466.591 737.007 453.459C743.873 440.326 753.292 430.198 765.264 423.075C777.234 415.952 790.906 412.391 806.281 412.391C815.376 412.391 823.915 413.643 831.896 416.147C839.934 418.651 847.182 422.324 853.637 427.165C860.091 431.951 865.49 437.794 869.832 444.694C874.175 451.539 877.167 459.357 878.81 468.149Z" fill="#444243"/>
<path d="M454.722 468.149H432.894C431.603 462.195 429.342 456.964 426.115 452.457C422.947 447.949 419.073 444.165 414.498 441.105C409.979 437.989 404.962 435.651 399.445 434.093C393.929 432.535 388.179 431.756 382.193 431.756C371.279 431.756 361.392 434.371 352.53 439.602C343.728 444.833 336.715 452.54 331.493 462.724C326.329 472.907 323.747 485.4 323.747 500.203C323.747 515.005 326.329 527.498 331.493 537.681C336.715 547.864 343.728 555.571 352.53 560.804C361.392 566.033 371.279 568.65 382.193 568.65C388.179 568.65 393.929 567.869 399.445 566.311C404.962 564.752 409.979 562.444 414.498 559.384C419.073 556.267 422.947 552.454 426.115 547.948C429.342 543.386 431.603 538.154 432.894 532.255H454.722C453.081 540.993 450.087 548.811 445.744 555.71C441.401 562.611 436.003 568.483 429.548 573.323C423.094 578.108 415.846 581.754 407.808 584.257C399.826 586.763 391.29 588.013 382.193 588.013C366.818 588.013 353.146 584.452 341.175 577.33C329.204 570.208 319.786 560.08 312.92 546.947C306.055 533.814 302.622 518.232 302.622 500.203C302.622 482.173 306.055 466.591 312.92 453.459C319.786 440.326 329.204 430.198 341.175 423.075C353.146 415.952 366.818 412.391 382.193 412.391C391.29 412.391 399.826 413.643 407.808 416.147C415.846 418.651 423.094 422.324 429.548 427.165C436.003 431.951 441.401 437.794 445.744 444.694C450.087 451.539 453.081 459.357 454.722 468.149ZM511.826 414.728V585.677H489.998V414.728H511.826ZM611.226 585.677H555.594V414.728H613.69C631.177 414.728 646.141 418.15 658.581 424.995C671.022 431.784 680.557 441.55 687.188 454.293C693.818 466.981 697.135 482.173 697.135 499.869C697.135 517.676 693.789 533.006 687.099 545.861C680.411 558.66 670.67 568.509 657.877 575.41C645.085 582.255 629.534 585.677 611.226 585.677ZM577.424 567.315H609.816C624.722 567.315 637.074 564.586 646.874 559.132C656.673 553.679 663.98 545.917 668.791 535.845C673.602 525.773 676.009 513.78 676.009 499.869C676.009 486.068 673.632 474.187 668.88 464.226C664.126 454.21 657.025 446.53 647.578 441.188C638.13 435.79 626.366 433.091 612.282 433.091H577.424V567.315Z" fill="#BC0E0F"/>
<path d="M711.06 299.852H288.94V700.15H711.06V299.852Z" stroke="#444243" stroke-width="1.5"/>
</svg>
